<svg width="24" height="24" viewBox="0 0 24 24" fill="none" xmlns="http://www.w3.org/2000/svg">
<path d="M4.41886 0.271484C2.09506 0.271484 0.223938 2.1426 0.223938 4.46641V19.0506C0.223938 21.3744 2.09506 23.2455 4.41886 23.2455H12.3234V14.2641H9.94843V11.0305H12.3234V8.2679C12.3234 6.09742 13.7266 4.10457 16.9591 4.10457C18.2679 4.10457 19.2357 4.23021 19.2357 4.23021L19.1596 7.24987C19.1596 7.24987 18.1725 7.24054 17.0955 7.24054C15.9298 7.24054 15.7429 7.77763 15.7429 8.66925V11.0305H19.2522L19.0993 14.2641H15.7429V23.2456H19.0031C21.3269 23.2456 23.198 21.3745 23.198 19.0506V4.46643C23.198 2.14263 21.3269 0.271507 19.0031 0.271507H4.41884L4.41886 0.271484Z" fill="white"/>
</svg>
