<svg width="31" height="31" viewBox="0 0 31 31" fill="none" xmlns="http://www.w3.org/2000/svg">
<path d="M15.3319 10.2108C12.5189 10.2108 10.2233 12.5064 10.2233 15.3194C10.2233 18.1324 12.5189 20.4281 15.3319 20.4281C18.145 20.4281 20.4406 18.1324 20.4406 15.3194C20.4406 12.5064 18.145 10.2108 15.3319 10.2108ZM30.654 15.3194C30.654 13.2039 30.6732 11.1076 30.5544 8.99588C30.4356 6.54312 29.8761 4.36629 28.0825 2.57271C26.2851 0.775293 24.1121 0.219589 21.6593 0.100783C19.5438 -0.0180223 17.4474 0.00113994 15.3358 0.00113994C13.2203 0.00113994 11.1239 -0.0180223 9.01224 0.100783C6.55948 0.219589 4.38265 0.779126 2.58907 2.57271C0.791651 4.37012 0.235947 6.54312 0.117141 8.99588C-0.00166491 11.1114 0.0174974 13.2077 0.0174974 15.3194C0.0174974 17.4311 -0.00166491 19.5313 0.117141 21.6429C0.235947 24.0957 0.795483 26.2725 2.58907 28.0661C4.38648 29.8635 6.55948 30.4192 9.01224 30.538C11.1277 30.6568 13.2241 30.6377 15.3358 30.6377C17.4513 30.6377 19.5476 30.6568 21.6593 30.538C24.1121 30.4192 26.2889 29.8597 28.0825 28.0661C29.8799 26.2687 30.4356 24.0957 30.5544 21.6429C30.677 19.5313 30.654 17.4349 30.654 15.3194ZM15.3319 23.1798C10.9821 23.1798 7.4716 19.6692 7.4716 15.3194C7.4716 10.9696 10.9821 7.45907 15.3319 7.45907C19.6818 7.45907 23.1923 10.9696 23.1923 15.3194C23.1923 19.6692 19.6818 23.1798 15.3319 23.1798ZM23.5142 8.97289C22.4986 8.97289 21.6785 8.15275 21.6785 7.13715C21.6785 6.12155 22.4986 5.30141 23.5142 5.30141C24.5298 5.30141 25.3499 6.12155 25.3499 7.13715C25.3502 7.37831 25.303 7.61715 25.2108 7.84001C25.1187 8.06287 24.9835 8.26536 24.8129 8.43589C24.6424 8.60641 24.4399 8.74162 24.2171 8.83377C23.9942 8.92591 23.7554 8.97319 23.5142 8.97289Z" fill="#44A0A6"/>
</svg>
