<svg width="23" height="24" viewBox="0 0 23 24" fill="none" xmlns="http://www.w3.org/2000/svg">
<path d="M11.4841 7.92788C9.37481 7.92788 7.65346 9.64923 7.65346 11.7585C7.65346 13.8678 9.37481 15.5892 11.4841 15.5892C13.5934 15.5892 15.3148 13.8678 15.3148 11.7585C15.3148 9.64923 13.5934 7.92788 11.4841 7.92788ZM22.9732 11.7585C22.9732 10.1722 22.9875 8.60033 22.8985 7.01692C22.8094 5.17775 22.3898 3.54549 21.0449 2.20059C19.6971 0.852827 18.0678 0.43614 16.2286 0.347055C14.6423 0.257971 13.0704 0.272339 11.487 0.272339C9.9007 0.272339 8.32878 0.257971 6.74537 0.347055C4.9062 0.43614 3.27394 0.8557 1.92905 2.20059C0.581282 3.54836 0.164595 5.17775 0.0755099 7.01692C-0.0135748 8.6032 0.000793731 10.1751 0.000793731 11.7585C0.000793731 13.3419 -0.0135748 14.9167 0.0755099 16.5001C0.164595 18.3393 0.584155 19.9716 1.92905 21.3165C3.27681 22.6642 4.9062 23.0809 6.74537 23.17C8.33166 23.2591 9.90357 23.2447 11.487 23.2447C13.0733 23.2447 14.6452 23.2591 16.2286 23.17C18.0678 23.0809 19.7 22.6614 21.0449 21.3165C22.3927 19.9687 22.8094 18.3393 22.8985 16.5001C22.9904 14.9167 22.9732 13.3448 22.9732 11.7585ZM11.4841 17.6525C8.22246 17.6525 5.59014 15.0202 5.59014 11.7585C5.59014 8.49687 8.22246 5.86456 11.4841 5.86456C14.7458 5.86456 17.3781 8.49687 17.3781 11.7585C17.3781 15.0202 14.7458 17.6525 11.4841 17.6525ZM17.6195 6.99968C16.8579 6.99968 16.243 6.3847 16.243 5.62317C16.243 4.86164 16.8579 4.24667 17.6195 4.24667C18.381 4.24667 18.996 4.86164 18.996 5.62317C18.9962 5.804 18.9607 5.9831 18.8916 6.15021C18.8226 6.31731 18.7212 6.46915 18.5933 6.59701C18.4654 6.72488 18.3136 6.82626 18.1465 6.89536C17.9794 6.96445 17.8003 6.9999 17.6195 6.99968Z" fill="white"/>
</svg>
