<svg width="32" height="29" viewBox="0 0 32 29" fill="none" xmlns="http://www.w3.org/2000/svg">
<path d="M18.3949 3.04138C17.3379 3.04138 13.1385 3.44736 11.4775 5.73873C10.9885 6.40619 18.0857 6.0759 16.8417 6.83969C15.3389 7.76174 11.8082 9.2618 8.57962 8.94528C8.14099 8.90399 7.64483 8.91087 7.27092 9.16547C6.96891 9.3719 6.83229 9.70219 6.78195 10.0394C6.65252 10.9821 7.04801 11.9936 7.38597 12.8606C7.83898 14.0235 8.39986 15.1382 8.83849 16.3079C8.87444 16.4043 8.9104 16.5006 8.9104 16.6038C8.9104 16.707 8.86725 16.8103 8.78096 16.8653C8.63715 16.9479 8.45738 16.8722 8.31357 16.7896C7.7455 16.4593 7.24216 16.0327 6.71004 15.6405C6.41523 15.4203 6.11322 15.2139 5.78244 15.0418C5.52358 14.9042 5.07057 14.6083 4.78294 14.7941C4.62474 14.8973 4.58879 15.1106 4.5816 15.2964C4.5025 16.7139 4.71822 18.1452 5.2 19.487C5.59549 20.6017 6.16355 21.6545 6.86105 22.6178C7.56574 23.5949 8.40705 24.4757 9.34903 25.2532C10.291 26.0308 11.3409 26.6982 12.4554 27.2281C13.57 27.7579 14.7636 28.1501 15.986 28.3772C16.7842 28.5217 17.5968 28.6043 18.4093 28.6043C25.787 28.6043 31.7624 22.8862 31.7624 15.8263C31.7624 8.76637 25.7726 3.04138 18.3949 3.04138ZM18.3949 22.6935C14.4257 22.6935 11.2114 19.6177 11.2114 15.8194C11.2114 12.0211 14.4257 8.94528 18.3949 8.94528C22.3642 8.94528 25.5784 12.0211 25.5784 15.8194C25.5784 19.6177 22.3642 22.6935 18.3949 22.6935Z" fill="#FAFAFA"/>
<path d="M5.25947 5.78013C5.98573 5.78013 6.58256 5.21589 6.58256 4.51403C6.58256 3.81905 5.99292 3.24792 5.25947 3.24792C4.52602 3.24792 3.94357 3.81905 3.94357 4.51403C3.94357 5.20901 4.53321 5.78013 5.25947 5.78013Z" fill="#FAFAFA"/>
<path d="M5.48043 10.2253C5.48043 9.63352 4.97709 9.15186 4.35869 9.15186C3.74029 9.15186 3.23694 9.63352 3.23694 10.2253C3.23694 10.8171 3.74029 11.2987 4.35869 11.2987C4.97709 11.2987 5.48043 10.8171 5.48043 10.2253Z" fill="#FAFAFA"/>
<path d="M10.2063 1.47941C10.6305 1.47941 10.9828 1.14913 10.9828 0.736267C10.9828 0.323407 10.6305 0 10.2063 0C9.782 0 9.42966 0.330288 9.42966 0.743148C9.42966 1.15601 9.77481 1.47941 10.2063 1.47941Z" fill="#FAFAFA"/>
<path d="M2.4886 13.886C2.79042 13.886 3.03509 13.6519 3.03509 13.363C3.03509 13.0742 2.79042 12.8401 2.4886 12.8401C2.18678 12.8401 1.94211 13.0742 1.94211 13.363C1.94211 13.6519 2.18678 13.886 2.4886 13.886Z" fill="#FAFAFA"/>
<path d="M1.26679 5.0437C0.749061 5.0437 0.332001 5.4428 0.332001 5.93823C0.332001 6.43366 0.749061 6.83276 1.26679 6.83276C1.78452 6.83276 2.20158 6.43366 2.20158 5.93823C2.20158 5.4428 1.77733 5.0437 1.26679 5.0437Z" fill="#FAFAFA"/>
<path d="M10.2055 6.10337C10.5113 6.10337 10.7592 5.86616 10.7592 5.57354C10.7592 5.28092 10.5113 5.0437 10.2055 5.0437C9.89972 5.0437 9.65182 5.28092 9.65182 5.57354C9.65182 5.86616 9.89972 6.10337 10.2055 6.10337Z" fill="#FAFAFA"/>
<path d="M21.4792 17.016C22.1708 15.4184 21.378 13.5869 19.7086 12.9252C18.0391 12.2635 16.1252 13.0221 15.4337 14.6196C14.7422 16.2171 15.5349 18.0486 17.2044 18.7104C18.8738 19.3721 20.7877 18.6135 21.4792 17.016Z" fill="#FAFAFA"/>
</svg>
