<svg width="133" height="26" viewBox="0 0 133 26" fill="none" xmlns="http://www.w3.org/2000/svg">
<path d="M13.6143 0.526855L16.4735 9.32646H25.7259L18.2405 14.7649L21.0997 23.5645L13.6143 18.1261L6.12891 23.5645L8.98808 14.7649L1.50269 9.32646H10.7551L13.6143 0.526855Z" fill="#44A0A6"/>
<path d="M40.084 0.526855L42.9432 9.32646H52.1956L44.7103 14.7649L47.5694 23.5645L40.084 18.1261L32.5986 23.5645L35.4578 14.7649L27.9724 9.32646H37.2249L40.084 0.526855Z" fill="#44A0A6"/>
<path d="M66.5538 0.526855L69.4129 9.32646H78.6654L71.18 14.7649L74.0391 23.5645L66.5538 18.1261L59.0684 23.5645L61.9275 14.7649L54.4421 9.32646H63.6946L66.5538 0.526855Z" fill="#44A0A6"/>
<path d="M93.024 0.526855L95.8831 9.32646H105.136L97.6502 14.7649L100.509 23.5645L93.024 18.1261L85.5386 23.5645L88.3977 14.7649L80.9124 9.32646H90.1648L93.024 0.526855Z" fill="#44A0A6"/>
<path d="M119.494 0.526855L122.353 9.32646H131.605L124.12 14.7649L126.979 23.5645L119.494 18.1261L112.008 23.5645L114.867 14.7649L107.382 9.32646H116.635L119.494 0.526855Z" fill="#44A0A6"/>
</svg>
