<svg width="39" height="31" viewBox="0 0 39 31" fill="none" xmlns="http://www.w3.org/2000/svg">
<path d="M38.3449 3.63433C36.9589 4.24848 35.47 4.66345 33.9047 4.85102C35.5198 3.88462 36.7281 2.36364 37.3041 0.571858C35.7868 1.47315 34.1261 2.10757 32.3942 2.44752C31.2296 1.20405 29.6871 0.379853 28.0061 0.1029C26.3251 -0.174054 24.5996 0.111726 23.0977 0.915871C21.5957 1.72002 20.4013 2.99754 19.6998 4.55009C18.9983 6.10264 18.829 7.84336 19.2181 9.50199C16.1435 9.34761 13.1357 8.54847 10.39 7.15643C7.6442 5.76438 5.22182 3.81054 3.28002 1.42171C2.61607 2.56703 2.2343 3.89493 2.2343 5.30914C2.23356 6.58226 2.54708 7.83587 3.14703 8.95876C3.74699 10.0817 4.61483 11.0391 5.67356 11.7461C4.44572 11.7071 3.24496 11.3753 2.17123 10.7784V10.878C2.1711 12.6636 2.78876 14.3943 3.91938 15.7763C5.05 17.1584 6.62396 18.1067 8.37418 18.4603C7.23515 18.7686 6.04096 18.814 4.8818 18.5931C5.37561 20.1295 6.33751 21.4731 7.63283 22.4356C8.92815 23.3982 10.492 23.9316 12.1056 23.9612C9.36651 26.1114 5.98377 27.2777 2.50154 27.2726C1.8847 27.2728 1.26838 27.2368 0.655762 27.1647C4.19043 29.4374 8.30503 30.6435 12.5073 30.6388C26.7324 30.6388 34.5089 18.857 34.5089 8.63885C34.5089 8.30688 34.5006 7.97158 34.4857 7.63961C35.9983 6.54571 37.304 5.19112 38.3416 3.63931L38.3449 3.63433Z" fill="#44A0A6"/>
</svg>
