<svg width="29" height="24" viewBox="0 0 29 24" fill="none" xmlns="http://www.w3.org/2000/svg">
<path d="M28.7295 2.99663C27.6903 3.45715 26.5738 3.76831 25.4001 3.90895C26.6112 3.18431 27.5172 2.04382 27.9491 0.700284C26.8114 1.37611 25.5661 1.85181 24.2675 2.10672C23.3943 1.17432 22.2376 0.556312 20.9771 0.348642C19.7166 0.140972 18.4228 0.355261 17.2966 0.958237C16.1704 1.56121 15.2748 2.51914 14.7487 3.6833C14.2227 4.84746 14.0958 6.15271 14.3876 7.39641C12.0822 7.28066 9.82681 6.68143 7.76793 5.63763C5.70905 4.59382 3.89266 3.12877 2.43664 1.33754C1.93878 2.19633 1.65252 3.19204 1.65252 4.25247C1.65196 5.2071 1.88705 6.1471 2.33692 6.98909C2.78678 7.83107 3.43752 8.54899 4.2314 9.07916C3.31071 9.04986 2.41034 8.80109 1.60522 8.35354V8.42822C1.60513 9.76712 2.06827 11.0648 2.91605 12.1011C3.76383 13.1374 4.94404 13.8485 6.25642 14.1137C5.40233 14.3449 4.50688 14.3789 3.63771 14.2133C4.00798 15.3653 4.72925 16.3727 5.70052 17.0945C6.6718 17.8163 7.84447 18.2162 9.05436 18.2384C7.0005 19.8507 4.46401 20.7253 1.8529 20.7215C1.39038 20.7216 0.928237 20.6946 0.468872 20.6406C3.11929 22.3447 6.20457 23.2491 9.35556 23.2456C20.0221 23.2456 25.8532 14.4112 25.8532 6.7492C25.8532 6.50028 25.847 6.24886 25.8358 5.99993C26.97 5.17969 27.949 4.16397 28.727 3.00037L28.7295 2.99663Z" fill="white"/>
</svg>
