<svg width="31" height="31" viewBox="0 0 31 31" fill="none" xmlns="http://www.w3.org/2000/svg">
<path d="M5.93933 0C2.84025 0 0.344879 2.49537 0.344879 5.59445V25.0443C0.344879 28.1434 2.84025 30.6388 5.93933 30.6388H16.481V18.6609H13.3137V14.3485H16.481V10.6642C16.481 7.76962 18.3524 5.11189 22.6633 5.11189C24.4087 5.11189 25.6994 5.27946 25.6994 5.27946L25.5979 9.30656C25.5979 9.30656 24.2816 9.29412 22.8452 9.29412C21.2906 9.29412 21.0414 10.0104 21.0414 11.1995V14.3486H25.7214L25.5175 18.661H21.0414V30.6388H25.3892C28.4883 30.6388 30.9836 28.1435 30.9836 25.0444V5.59449C30.9836 2.4954 28.4883 3.06388e-05 25.3892 3.06388e-05H5.9393L5.93933 0Z" fill="#44A0A6"/>
</svg>
