<svg width="35" height="35" viewBox="0 0 35 35" fill="none" xmlns="http://www.w3.org/2000/svg">
<path d="M17.7962 12.0439C14.6958 12.0439 12.1657 14.5741 12.1657 17.6745C12.1657 20.7749 14.6958 23.305 17.7962 23.305C20.8966 23.305 23.4268 20.7749 23.4268 17.6745C23.4268 14.5741 20.8966 12.0439 17.7962 12.0439ZM34.6836 17.6745C34.6836 15.3429 34.7048 13.0323 34.5738 10.7049C34.4429 8.0016 33.8262 5.60239 31.8494 3.62558C29.8683 1.64454 27.4733 1.03206 24.77 0.901118C22.4384 0.770176 20.1279 0.791295 17.8005 0.791295C15.4688 0.791295 13.1583 0.770176 10.8309 0.901118C8.12758 1.03206 5.72837 1.64876 3.75155 3.62558C1.77051 5.60662 1.15804 8.0016 1.0271 10.7049C0.896152 13.0366 0.917272 15.3471 0.917272 17.6745C0.917272 20.0019 0.896152 22.3166 1.0271 24.644C1.15804 27.3474 1.77474 29.7466 3.75155 31.7234C5.73259 33.7044 8.12758 34.3169 10.8309 34.4478C13.1625 34.5788 15.4731 34.5577 17.8005 34.5577C20.1321 34.5577 22.4426 34.5788 24.77 34.4478C27.4733 34.3169 29.8726 33.7002 31.8494 31.7234C33.8304 29.7424 34.4429 27.3474 34.5738 24.644C34.709 22.3166 34.6836 20.0061 34.6836 17.6745ZM17.7962 26.3378C13.002 26.3378 9.13288 22.4687 9.13288 17.6745C9.13288 12.8803 13.002 9.01113 17.7962 9.01113C22.5904 9.01113 26.4596 12.8803 26.4596 17.6745C26.4596 22.4687 22.5904 26.3378 17.7962 26.3378ZM26.8144 10.6796C25.695 10.6796 24.7911 9.77567 24.7911 8.65632C24.7911 7.53697 25.695 6.63304 26.8144 6.63304C27.9338 6.63304 28.8377 7.53697 28.8377 8.65632C28.838 8.92211 28.7859 9.18536 28.6843 9.43099C28.5828 9.67661 28.4338 9.89979 28.2458 10.0877C28.0579 10.2757 27.8347 10.4247 27.5891 10.5263C27.3434 10.6278 27.0802 10.6799 26.8144 10.6796Z" fill="white"/>
</svg>
